<svg width="136" height="49" viewBox="0 0 136 49" fill="none" xmlns="http://www.w3.org/2000/svg">
<g clip-path="url(#clip0_3_173)">
<path d="M62.8667 35.3333C61.5111 35.3333 60.3222 35.1778 59.3 34.8667C58.2889 34.5444 57.4278 34.1056 56.7167 33.55C56.0056 32.9944 55.4389 32.3333 55.0167 31.5667C54.5944 30.7889 54.3056 29.9389 54.15 29.0167H58C58.1333 29.5833 58.3278 30.1111 58.5833 30.6C58.8389 31.0889 59.1611 31.5167 59.55 31.8833C59.95 32.2389 60.4167 32.5222 60.95 32.7333C61.4944 32.9333 62.1222 33.0333 62.8333 33.0333C63.3 33.0333 63.7611 32.9833 64.2167 32.8833C64.6833 32.7833 65.1 32.6222 65.4667 32.4C65.8333 32.1667 66.1278 31.8722 66.35 31.5167C66.5722 31.15 66.6833 30.7 66.6833 30.1667C66.6833 29.5 66.5111 28.9056 66.1667 28.3833C65.8222 27.8611 65.3667 27.3889 64.8 26.9667C64.2333 26.5333 63.5889 26.1333 62.8667 25.7667C62.1444 25.4 61.4056 25.0333 60.65 24.6667C59.8944 24.2889 59.1556 23.8944 58.4333 23.4833C57.7111 23.0722 57.0667 22.6167 56.5 22.1167C55.9333 21.6056 55.4778 21.0333 55.1333 20.4C54.7889 19.7556 54.6167 19.0222 54.6167 18.2C54.6167 17.3 54.8111 16.4722 55.2 15.7167C55.6 14.95 56.1722 14.2889 56.9167 13.7333C57.6611 13.1667 58.5722 12.7278 59.65 12.4167C60.7278 12.0944 61.9556 11.9333 63.3333 11.9333C64.4667 11.9333 65.4944 12.0889 66.4167 12.4C67.3389 12.7111 68.15 13.1444 68.85 13.7C69.5611 14.2444 70.1556 14.8889 70.6333 15.6333C71.1111 16.3667 71.4778 17.1556 71.7333 18H68.25C68.05 17.4667 67.8167 16.9556 67.55 16.4667C67.2833 15.9778 66.9556 15.55 66.5667 15.1833C66.1778 14.8167 65.7056 14.5278 65.15 14.3167C64.5944 14.0944 63.9333 13.9833 63.1667 13.9833C62.4444 13.9833 61.8333 14.0778 61.3333 14.2667C60.8444 14.4556 60.45 14.7 60.15 15C59.85 15.2889 59.6333 15.6167 59.5 15.9833C59.3667 16.3389 59.3 16.6889 59.3 17.0333C59.3 17.6333 59.4778 18.1778 59.8333 18.6667C60.1889 19.1556 60.6556 19.6111 61.2333 20.0333C61.8222 20.4556 62.4889 20.8611 63.2333 21.25C63.9778 21.6278 64.7333 22.0111 65.5 22.4C66.2778 22.7889 67.0389 23.2 67.7833 23.6333C68.5278 24.0556 69.1889 24.5222 69.7667 25.0333C70.3556 25.5444 70.8278 26.1111 71.1833 26.7333C71.5389 27.3556 71.7167 28.0556 71.7167 28.8333C71.7167 29.7556 71.5278 30.6111 71.15 31.4C70.7722 32.1889 70.2111 32.8778 69.4667 33.4667C68.7222 34.0444 67.7944 34.5 66.6833 34.8333C65.5833 35.1667 64.3111 35.3333 62.8667 35.3333ZM84.7307 35.3167C83.3752 35.3167 82.1196 35.0944 80.9641 34.65C79.8196 34.2056 78.8252 33.5944 77.9807 32.8167C77.1474 32.0389 76.4918 31.1278 76.0141 30.0833C75.5474 29.0278 75.3141 27.8889 75.3141 26.6667C75.3141 25.3556 75.5474 24.15 76.0141 23.05C76.4918 21.9389 77.1474 20.9833 77.9807 20.1833C78.8141 19.3833 79.803 18.7611 80.9474 18.3167C82.103 17.8611 83.3585 17.6333 84.7141 17.6333C86.0696 17.6333 87.3252 17.8556 88.4807 18.3C89.6363 18.7333 90.6307 19.3333 91.4641 20.1C92.3085 20.8667 92.9696 21.7722 93.4474 22.8167C93.9252 23.85 94.1641 24.9667 94.1641 26.1667C94.1641 27.4222 93.9252 28.6056 93.4474 29.7167C92.9807 30.8278 92.3252 31.8 91.4807 32.6333C90.6474 33.4556 89.653 34.1111 88.4974 34.6C87.3418 35.0778 86.0863 35.3167 84.7307 35.3167ZM85.3307 33.2333C85.7974 33.2333 86.2307 33.0833 86.6307 32.7833C87.0307 32.4722 87.3752 32.0611 87.6641 31.55C87.9641 31.0278 88.1918 30.4278 88.3474 29.75C88.5141 29.0722 88.5974 28.3667 88.5974 27.6333C88.5974 26.5444 88.5141 25.5222 88.3474 24.5667C88.1918 23.6 87.9307 22.7556 87.5641 22.0333C87.1974 21.3111 86.7196 20.7389 86.1307 20.3167C85.553 19.8944 84.8418 19.6833 83.9974 19.6833C83.5863 19.6833 83.1918 19.8333 82.8141 20.1333C82.4363 20.4333 82.103 20.8389 81.8141 21.35C81.5252 21.85 81.2918 22.4333 81.1141 23.1C80.9474 23.7556 80.8641 24.45 80.8641 25.1833C80.8641 26.2833 80.9641 27.3222 81.1641 28.3C81.3752 29.2778 81.6696 30.1333 82.0474 30.8667C82.4363 31.5889 82.903 32.1667 83.4474 32.6C84.003 33.0222 84.6307 33.2333 85.3307 33.2333ZM108.61 14.2C108.532 13.9444 108.432 13.6444 108.31 13.3C108.199 12.9444 108.038 12.6056 107.827 12.2833C107.615 11.9611 107.349 11.6889 107.027 11.4667C106.704 11.2444 106.304 11.1333 105.827 11.1333C105.36 11.1333 104.999 11.3667 104.743 11.8333C104.488 12.2889 104.36 12.9833 104.36 13.9167V17.9333H108.61V20.0167H104.36V35H99.1932V20.0167H95.8599V17.9333H99.1932V16.0333C99.1932 15.1556 99.3655 14.3111 99.7099 13.5C100.065 12.6778 100.554 11.95 101.177 11.3167C101.81 10.6833 102.554 10.1778 103.41 9.8C104.277 9.42222 105.227 9.23333 106.26 9.23333C107.104 9.23333 107.832 9.35 108.443 9.58333C109.054 9.80555 109.577 10.0833 110.01 10.4167C110.443 10.7389 110.799 11.0833 111.077 11.45C111.365 11.8056 111.593 12.1222 111.76 12.4L108.61 14.2ZM118.445 26.2C117.945 26.4111 117.439 26.6667 116.928 26.9667C116.417 27.2667 115.956 27.6056 115.545 27.9833C115.145 28.35 114.812 28.7611 114.545 29.2167C114.289 29.6611 114.162 30.1389 114.162 30.65C114.162 31.2167 114.306 31.6611 114.595 31.9833C114.895 32.3056 115.295 32.4667 115.795 32.4667C116.217 32.4667 116.634 32.3444 117.045 32.1C117.456 31.8444 117.923 31.5167 118.445 31.1167V26.2ZM108.978 22.2667C109.156 21.5556 109.467 20.9111 109.912 20.3333C110.356 19.7444 110.906 19.25 111.562 18.85C112.228 18.4389 112.984 18.1222 113.828 17.9C114.684 17.6778 115.606 17.5667 116.595 17.5667C117.817 17.5667 118.873 17.6778 119.762 17.9C120.65 18.1222 121.378 18.4389 121.945 18.85C122.523 19.25 122.945 19.7389 123.212 20.3167C123.489 20.8833 123.628 21.5222 123.628 22.2333V32C123.628 32.7 123.845 33.2944 124.278 33.7833C124.712 34.2722 125.323 34.6778 126.112 35H119.978C119.8 35 119.628 34.95 119.462 34.85C119.295 34.75 119.145 34.6222 119.012 34.4667C118.878 34.3 118.762 34.1222 118.662 33.9333C118.562 33.7444 118.489 33.5611 118.445 33.3833C118.134 33.6722 117.839 33.9389 117.562 34.1833C117.284 34.4167 116.978 34.6167 116.645 34.7833C116.312 34.95 115.939 35.0778 115.528 35.1667C115.117 35.2667 114.623 35.3167 114.045 35.3167C113.256 35.3167 112.545 35.2056 111.912 34.9833C111.289 34.7611 110.756 34.4556 110.312 34.0667C109.878 33.6667 109.545 33.2 109.312 32.6667C109.078 32.1222 108.962 31.5333 108.962 30.9C108.962 29.9222 109.234 29.0833 109.778 28.3833C110.323 27.6833 111.039 27.0722 111.928 26.55C112.828 26.0278 113.845 25.5722 114.978 25.1833C116.112 24.7944 117.267 24.4222 118.445 24.0667V22.4C118.445 21.8556 118.389 21.3944 118.278 21.0167C118.167 20.6278 118.012 20.3167 117.812 20.0833C117.612 19.8389 117.367 19.6667 117.078 19.5667C116.8 19.4556 116.489 19.4 116.145 19.4C115.734 19.4 115.367 19.4778 115.045 19.6333C114.723 19.7889 114.445 20 114.212 20.2667C113.978 20.5333 113.789 20.8389 113.645 21.1833C113.5 21.5278 113.395 21.8889 113.328 22.2667H108.978Z" fill="black"/>
<path d="M37.1667 21.125V16.75C37.1667 15.9764 36.8594 15.2346 36.3124 14.6876C35.7654 14.1406 35.0236 13.8333 34.25 13.8333H16.75C15.9765 13.8333 15.2346 14.1406 14.6876 14.6876C14.1406 15.2346 13.8334 15.9764 13.8334 16.75V21.125M37.1667 21.125C37.9402 21.125 38.6821 21.4323 39.2291 21.9793C39.7761 22.5262 40.0834 23.2681 40.0834 24.0416V31.3333C40.0834 32.1069 39.7761 32.8487 39.2291 33.3957C38.6821 33.9427 37.9402 34.25 37.1667 34.25M37.1667 21.125C36.3931 21.125 35.6513 21.4323 35.1043 21.9793C34.5573 22.5262 34.25 23.2681 34.25 24.0416V26.2291C34.25 26.4225 34.1732 26.608 34.0365 26.7447C33.8997 26.8815 33.7142 26.9583 33.5209 26.9583H17.4792C17.2858 26.9583 17.1003 26.8815 16.9636 26.7447C16.8268 26.608 16.75 26.4225 16.75 26.2291V24.0416C16.75 23.2681 16.4427 22.5262 15.8957 21.9793C15.3488 21.4323 14.6069 21.125 13.8334 21.125M13.8334 21.125C13.0598 21.125 12.3179 21.4323 11.771 21.9793C11.224 22.5262 10.9167 23.2681 10.9167 24.0416V31.3333C10.9167 32.1069 11.224 32.8487 11.771 33.3957C12.3179 33.9427 13.0598 34.25 13.8334 34.25M13.8334 34.25H37.1667M13.8334 34.25V37.1666M37.1667 34.25V37.1666M25.5 13.8333V26.9583" stroke="black" stroke-width="2" stroke-linecap="round" stroke-linejoin="round"/>
</g>
<defs>
<clipPath id="clip0_3_173">
<rect width="136" height="49" fill="white"/>
</clipPath>
</defs>
</svg>
